HIERARCHY
ROOT Hips
{
	OFFSET -0.001795 -0.223333 0.028219
	CHANNELS 6 Xposition Yposition Zposition Zrotation Yrotation Xrotation 
	JOINT LeftUpLeg
	{
		OFFSET 0.069520 -0.091406 -0.006815
		CHANNELS 3 Zrotation Yrotation Xrotation
		JOINT LeftLeg
		{
			OFFSET 0.034277 -0.375199 -0.004496
			CHANNELS 3 Zrotation Yrotation Xrotation
			JOINT LeftFoot
			{
				OFFSET -0.013596 -0.397961 -0.043693
				CHANNELS 3 Zrotation Yrotation Xrotation
				JOINT LeftToe
				{
					OFFSET 0.026358 -0.055791 0.119288
					CHANNELS 3 Zrotation Yrotation Xrotation
					End Site
					{
						OFFSET 0.000000 0.000000 0.000000
					}
				}
			}
		}
	}
	JOINT RightUpLeg
	{
		OFFSET -0.067670 -0.090522 -0.004320
		CHANNELS 3 Zrotation Yrotation Xrotation
		JOINT RightLeg
		{
			OFFSET -0.038290 -0.382569 -0.008850
			CHANNELS 3 Zrotation Yrotation Xrotation
			JOINT RightFoot
			{
				OFFSET 0.015774 -0.398415 -0.042312
				CHANNELS 3 Zrotation Yrotation Xrotation
				JOINT RightToe
				{
					OFFSET -0.025372 -0.048144 0.123348
					CHANNELS 3 Zrotation Yrotation Xrotation
					End Site
					{
						OFFSET 0.000000 0.000000 0.000000
					}
				}
			}
		}
	}
	JOINT Spine
	{
		OFFSET -0.002533 0.108963 -0.026696
		CHANNELS 3 Zrotation Yrotation Xrotation
		JOINT Spine1
		{
			OFFSET 0.005487 0.135180 0.001092
			CHANNELS 3 Zrotation Yrotation Xrotation
			JOINT Spine2
			{
				OFFSET 0.001457 0.052922 0.025425
				CHANNELS 3 Zrotation Yrotation Xrotation
				JOINT Neck
				{
					OFFSET -0.002778 0.213870 -0.042857
					CHANNELS 3 Zrotation Yrotation Xrotation
					JOINT Head
					{
						OFFSET 0.005152 0.064970 0.051349
						CHANNELS 3 Zrotation Yrotation Xrotation
						End Site
						{
							OFFSET 0.000000 0.000000 0.000000
						}
					}
				}
				JOINT LeftShoulder
				{
					OFFSET 0.078845 0.121749 -0.034090
					CHANNELS 3 Zrotation Yrotation Xrotation
					JOINT LeftArm
					{
						OFFSET 0.090977 0.030469 -0.008868
						CHANNELS 3 Zrotation Yrotation Xrotation
						JOINT LeftForeArm
						{
							OFFSET 0.259612 -0.012772 -0.027456
							CHANNELS 3 Zrotation Yrotation Xrotation
							JOINT LeftHand
							{
								OFFSET 0.249234 0.008986 -0.001171
								CHANNELS 3 Zrotation Yrotation Xrotation
								End Site
								{
									OFFSET 0.000000 0.000000 0.000000
								}
							}
						}
					}
				}
				JOINT RightShoulder
				{
					OFFSET -0.081759 0.118833 -0.038615
					CHANNELS 3 Zrotation Yrotation Xrotation
					JOINT RightArm
					{
						OFFSET -0.096012 0.032551 -0.009143
						CHANNELS 3 Zrotation Yrotation Xrotation
						JOINT RightForeArm
						{
							OFFSET -0.253742 -0.013329 -0.021401
							CHANNELS 3 Zrotation Yrotation Xrotation
							JOINT RightHand
							{
								OFFSET -0.255298 0.007772 -0.005559
								CHANNELS 3 Zrotation Yrotation Xrotation
								End Site
								{
									OFFSET 0.000000 0.000000 0.000000
								}
							}
						}
					}
				}
			}
		}
	}
}
MOTION
Frames: 7
Frame Time: 0.050000
-0.003686 0.949076 -0.003152 -0.777102 -0.348908 5.274055 5.513431 -0.072744 1.361882 -4.493401 0.450825 -6.902263 3.558205 10.002397 10.352607 0.000000 0.000000 0.000000 -3.078909 0.088533 0.317916 0.684989 -0.214345 -4.281939 -2.209946 -9.191257 11.986955 0.000000 0.000000 0.000000 -3.167421 0.116564 -2.547720 6.436181 -0.823670 -25.237939 -0.880296 -1.230910 31.286569 1.468095 0.470820 -26.185771 0.000000 0.000000 0.000000 -15.244736 13.299539 -7.424516 -46.879552 2.297366 -8.600003 -74.619192 -44.616637 39.897222 0.000000 0.000000 0.000000 5.979076 -4.699207 -2.305530 53.597970 -5.901472 -10.266431 111.864904 55.649301 81.298348 0.000000 0.000000 0.000000 
-0.003679 0.948718 -0.003272 -0.837795 -0.709574 5.283002 5.355199 -0.059452 1.434612 -4.199296 0.440307 -7.123602 3.607614 10.072725 10.450499 0.000000 0.000000 0.000000 -3.093291 0.110331 0.058160 0.892260 -0.222531 -4.137532 -2.203557 -9.167171 11.751764 0.000000 0.000000 0.000000 -2.883968 0.122412 -2.873946 6.193832 -0.788706 -25.018220 -0.769459 -0.785667 31.002669 1.727670 0.384220 -26.473741 0.000000 0.000000 0.000000 -15.124841 12.844904 -7.199015 -47.583270 2.324692 -8.703421 -69.825969 -45.853528 37.815154 0.000000 0.000000 0.000000 5.907043 -4.305298 -2.117823 54.353639 -5.216397 -10.088561 106.822806 58.369409 79.364323 0.000000 0.000000 0.000000 
-0.003675 0.948400 -0.003709 -0.860475 -0.766792 5.293776 5.368028 -0.064080 1.326707 -4.115338 0.437071 -7.075110 3.651241 10.169843 10.602188 0.000000 0.000000 0.000000 -3.138737 0.121817 -0.071242 0.995461 -0.222940 -3.928725 -2.152188 -9.047445 11.625652 0.000000 0.000000 0.000000 -2.707187 0.125267 -3.015476 5.967214 -0.723927 -25.212111 -0.703899 -0.635229 31.079672 1.626419 0.472315 -26.588696 0.000000 0.000000 0.000000 -14.944552 12.586546 -7.046809 -48.374670 1.836824 -8.664335 -64.162929 -46.175129 34.585603 0.000000 0.000000 0.000000 5.808961 -3.858560 -1.911287 54.770384 -4.251155 -9.752996 100.458853 60.556233 75.515081 0.000000 0.000000 0.000000 
-0.003731 0.948118 -0.004360 -0.924263 -0.798966 5.313388 5.315296 -0.063879 1.292801 -3.836427 0.424171 -7.184409 3.559703 10.024418 10.643740 0.000000 0.000000 0.000000 -3.112326 0.132215 -0.221329 1.069371 -0.227708 -3.923212 -2.124584 -8.987768 11.578858 0.000000 0.000000 0.000000 -2.497476 0.129744 -3.208196 5.774395 -0.688300 -25.113796 -0.661791 -0.403945 30.784589 1.606286 0.564613 -27.140915 0.000000 0.000000 0.000000 -14.944571 12.003260 -6.777402 -49.165964 1.469995 -8.636446 -58.402524 -45.757303 30.847870 0.000000 0.000000 0.000000 5.822733 -3.177214 -1.614695 55.111536 -3.321835 -9.366627 90.854552 62.225780 68.217989 0.000000 0.000000 0.000000 
-0.003872 0.948130 -0.005001 -0.983165 -0.763526 5.204294 5.300647 -0.061282 1.318106 -3.714671 0.418113 -7.161117 3.684958 10.278027 10.868131 0.000000 0.000000 0.000000 -2.947300 0.126715 -0.239930 1.140315 -0.229047 -3.798971 -2.032325 -8.825610 11.640288 0.000000 0.000000 0.000000 -2.471581 0.128059 -3.178985 5.714156 -0.673219 -25.135696 -0.600604 -0.183042 30.651179 1.705709 0.549759 -27.102083 0.000000 0.000000 0.000000 -14.985583 11.357184 -6.485295 -50.015892 1.077231 -8.620735 -52.824589 -44.716347 27.034453 0.000000 0.000000 0.000000 5.975944 -2.379225 -1.277165 55.529150 -2.603982 -9.091818 79.602777 62.554889 58.662880 0.000000 0.000000 0.000000 
-0.004047 0.948211 -0.005420 -0.986937 -0.574935 5.005576 5.248730 -0.053751 1.448134 -3.659301 0.414024 -7.227160 3.656601 10.257450 10.903855 0.000000 0.000000 0.000000 -2.916918 0.119033 -0.180534 1.253988 -0.232618 -3.628672 -2.198898 -9.135849 11.716866 0.000000 0.000000 0.000000 -2.472672 0.123241 -3.052782 5.595140 -0.647317 -25.112552 -0.575064 0.106871 30.541093 1.773531 0.564506 -26.883692 0.000000 0.000000 0.000000 -15.148785 10.497578 -6.130796 -50.507959 0.643549 -8.543464 -48.350539 -43.960811 24.154106 0.000000 0.000000 0.000000 6.585084 -1.613258 -0.965429 55.574450 -2.322404 -8.951078 70.519703 61.716058 50.580691 0.000000 0.000000 0.000000 
-0.004240 0.948265 -0.005650 -0.988381 -0.544649 4.829645 5.041720 -0.035279 1.651203 -3.327392 0.399379 -7.368330 3.635307 10.279771 11.174343 0.000000 0.000000 0.000000 -2.680483 0.086395 0.120451 1.031414 -0.216554 -3.613100 -2.142060 -9.064034 11.868036 0.000000 0.000000 0.000000 -2.420598 0.120458 -2.986098 5.396815 -0.614169 -24.963893 -0.446428 0.308255 30.552412 1.661130 0.648878 -26.654517 0.000000 0.000000 0.000000 -15.104891 10.091970 -5.945508 -50.886614 0.624329 -8.609434 -45.592042 -43.127094 22.277670 0.000000 0.000000 0.000000 6.821780 -1.135919 -0.756934 56.044355 -2.123538 -8.934231 66.361796 60.663869 46.579111 0.000000 0.000000 0.000000 
